<svg width="30" height="37" viewBox="0 0 30 37" fill="none" xmlns="http://www.w3.org/2000/svg">
<path fill-rule="evenodd" clip-rule="evenodd" d="M24.4 9.792C26.6 12.672 29.4 16.1279 29.8 21.5039C29.8 21.5039 30 22.6559 30 23.0399C30 30.5279 23.4 36.8639 15 36.8639C6.8 36.8639 0 30.7199 0 23.0399V22.0799C0.2 14.2079 4.4 12.096 4.6 12.096C4.8 11.904 5.2 11.904 5.4 12.096C5.6 12.288 5.8 12.48 5.8 12.672C5.8 12.864 6.6 17.4719 10 18.2399C10 16.1279 10 13.056 10.8 10.56C12 6.528 15 2.496 18.6 0.192C18.8 -1.85966e-07 19.2 0 19.6 0C19.8 0.192 20 0.384 20 0.768C20 4.416 22 6.912 24.2 9.6C24.4 9.6 24.4 9.6 24.4 9.792ZM9 29.1839C9.8 32.6399 12.2 35.3279 16.4 34.3679C22.4 33.0239 22 26.3039 19.6 22.6559C17.2 18.8159 17 15.7439 17 14.7839C15.6 16.5119 13.2 20.9279 13.8 23.8079C14.4 26.1119 12.4 26.6879 10.6 23.2319C9.8 23.6159 8.4 26.4959 9 29.1839Z" fill="#FF0000"/>
</svg>
